name Walk10.mot
datacolumns 19
datarows 27
range 1.90500000 2.03500000
endheader

                time	   L_ground_force_vx	   L_ground_force_vy	   L_ground_force_vz	   L_ground_force_px	   L_ground_force_py	   L_ground_force_pz	   R_ground_force_vx	   R_ground_force_vy	   R_ground_force_vz	   R_ground_force_px	   R_ground_force_py	   R_ground_force_pz	   L_ground_torque_x	   L_ground_torque_y	   L_ground_torque_z	   R_ground_torque_x	   R_ground_torque_y	   R_ground_torque_z	
          1.90500000	          0.05108159	          0.17929364	         -0.00355999	         -0.00007840	          0.00000000	         -0.00004722	        -35.46963944	        511.76251982	        -29.46373906	          0.45549236	          0.00000000	          0.09409099	          0.00000000	          0.00024226	          0.00000000	          0.00000000	         -0.73132682	          0.00000000	
          1.91000000	          0.03751240	          0.13778941	         -0.00329127	         -0.00007730	          0.00000000	         -0.00004978	        -35.02179451	        510.03983116	        -29.08027040	          0.45905555	          0.00000000	          0.09348227	          0.00000000	          0.00024066	          0.00000000	          0.00000000	         -0.68994780	          0.00000000	
          1.91500000	          0.02584396	          0.10027607	         -0.00285865	         -0.00007048	          0.00000000	         -0.00004747	        -34.54514831	        509.12276172	        -28.71813466	          0.46263719	          0.00000000	          0.09286400	          0.00000000	          0.00022061	          0.00000000	          0.00000000	         -0.64133062	          0.00000000	
          1.92000000	          0.01631727	          0.06828887	         -0.00235513	         -0.00006053	          0.00000000	         -0.00004224	        -33.99789695	        508.93853470	        -28.39227696	          0.46621664	          0.00000000	          0.09224307	          0.00000000	          0.00019029	          0.00000000	          0.00000000	         -0.58531335	          0.00000000	
          1.92500000	          0.00891749	          0.04237528	         -0.00184597	         -0.00004937	          0.00000000	         -0.00003555	        -33.34783602	        509.41125908	        -28.12674585	          0.46977710	          0.00000000	          0.09162640	          0.00000000	          0.00015581	          0.00000000	          0.00000000	         -0.52207656	          0.00000000	
          1.93000000	          0.00346689	          0.02240602	         -0.00137346	         -0.00003830	          0.00000000	         -0.00002844	        -32.57578237	        510.47018610	        -27.94880595	          0.47330271	          0.00000000	          0.09102121	          0.00000000	          0.00012137	          0.00000000	          0.00000000	         -0.45211361	          0.00000000	
          1.93500000	         -0.00030266	          0.00782807	         -0.00096183	         -0.00002818	          0.00000000	         -0.00002164	        -31.67694130	        512.05671183	        -27.88383238	          0.47677792	          0.00000000	          0.09043538	          0.00000000	          0.00008968	          0.00000000	          0.00000000	         -0.37637477	          0.00000000	
          1.94000000	         -0.00269607	         -0.00213959	         -0.00062178	         -0.00001946	          0.00000000	         -0.00001556	        -30.65991067	        514.12663370	        -27.95098864	          0.48019012	          0.00000000	          0.08987394	          0.00000000	          0.00006227	          0.00000000	          0.00000000	         -0.29633021	          0.00000000	
          1.94500000	         -0.00401768	         -0.00836244	         -0.00035455	         -0.00001232	          0.00000000	         -0.00001044	        -29.54437786	        516.64989977	        -28.16072946	          0.48353137	          0.00000000	          0.08933764	          0.00000000	          0.00003977	          0.00000000	          0.00000000	         -0.21360092	          0.00000000	
          1.95000000	         -0.00454746	         -0.01169166	         -0.00015513	         -0.00000678	          0.00000000	         -0.00000632	        -28.35892738	        519.61534339	        -28.51301717	          0.48679500	          0.00000000	          0.08882621	          0.00000000	          0.00002219	          0.00000000	          0.00000000	         -0.12922563	          0.00000000	
          1.95500000	         -0.00452755	         -0.01290196	         -0.00001498	         -0.00000268	          0.00000000	         -0.00000318	        -27.13895250	        523.02861992	        -28.99661626	          0.48997451	          0.00000000	          0.08833936	          0.00000000	          0.00000917	          0.00000000	          0.00000000	         -0.04341696	          0.00000000	
          1.96000000	         -0.00415670	         -0.01265771	          0.00007608	          0.00000015	          0.00000000	         -0.00000092	        -25.92378835	        526.90413631	        -29.58949637	          0.49306457	          0.00000000	          0.08787383	          0.00000000	          0.00000009	          0.00000000	          0.00000000	          0.04417384	          0.00000000	
          1.96500000	         -0.00359014	         -0.01150001	          0.00012846	          0.00000196	          0.00000000	          0.00000060	        -24.75304783	        531.26114231	        -30.26139339	          0.49606173	          0.00000000	          0.08742404	          0.00000000	         -0.00000574	          0.00000000	          0.00000000	          0.13413181	          0.00000000	
          1.97000000	         -0.00294288	         -0.00984809	          0.00015189	          0.00000297	          0.00000000	          0.00000153	        -23.66309927	        536.11934013	        -30.97777643	          0.49896744	          0.00000000	          0.08698464	          0.00000000	         -0.00000902	          0.00000000	          0.00000000	          0.22691552	          0.00000000	
          1.97500000	         -0.00229506	         -0.00800987	          0.00015490	          0.00000338	          0.00000000	          0.00000201	        -22.68386293	        541.49183313	        -31.70436309	          0.50178800	          0.00000000	          0.08654976	          0.00000000	         -0.00001042	          0.00000000	          0.00000000	          0.32286541	          0.00000000	
          1.98000000	         -0.00169811	         -0.00619758	          0.00014458	          0.00000337	          0.00000000	          0.00000215	        -21.83660171	        547.38261466	        -32.41156499	          0.50453047	          0.00000000	          0.08611330	          0.00000000	         -0.00001049	          0.00000000	          0.00000000	          0.42217602	          0.00000000	
          1.98500000	         -0.00118100	         -0.00454524	          0.00012653	          0.00000310	          0.00000000	          0.00000208	        -21.13263693	        553.78982177	        -33.07959214	          0.50720222	          0.00000000	          0.08567132	          0.00000000	         -0.00000970	          0.00000000	          0.00000000	          0.52481796	          0.00000000	
          1.99000000	         -0.00075599	         -0.00312615	          0.00010495	          0.00000268	          0.00000000	          0.00000186	        -20.57176511	        560.70782865	        -33.70146239	          0.50980972	          0.00000000	          0.08522042	          0.00000000	         -0.00000843	          0.00000000	          0.00000000	          0.63064588	          0.00000000	
          1.99500000	         -0.00042364	         -0.00196887	          0.00008280	          0.00000220	          0.00000000	          0.00000158	        -20.14162281	        568.13246551	        -34.28123942	          0.51235593	          0.00000000	          0.08475846	          0.00000000	         -0.00000695	          0.00000000	          0.00000000	          0.73888138	          0.00000000	
          2.00000000	         -0.00017701	         -0.00107102	          0.00006206	          0.00000172	          0.00000000	          0.00000127	        -19.81801102	        576.06376009	        -34.83109196	          0.51483977	          0.00000000	          0.08428362	          0.00000000	         -0.00000545	          0.00000000	          0.00000000	          0.84778338	          0.00000000	
          2.00500000	         -0.00000485	         -0.00041054	          0.00004384	          0.00000128	          0.00000000	          0.00000097	        -19.56581590	        584.50672096	        -35.36813505	          0.51725821	          0.00000000	          0.08379336	          0.00000000	         -0.00000406	          0.00000000	          0.00000000	          0.95455909	          0.00000000	
          2.01000000	          0.00010593	          0.00004548	          0.00002870	          0.00000089	          0.00000000	          0.00000071	        -19.34027359	        593.47075815	        -35.91064424	          0.51960841	          0.00000000	          0.08328617	          0.00000000	         -0.00000284	          0.00000000	          0.00000000	          1.05576267	          0.00000000	
          2.01500000	          0.00016860	          0.00033432	          0.00001671	          0.00000057	          0.00000000	          0.00000048	        -19.08970126	        602.96727420	        -36.47410635	          0.52188778	          0.00000000	          0.08276314	          0.00000000	         -0.00000184	          0.00000000	          0.00000000	          1.14771095	          0.00000000	
          2.02000000	          0.00019545	          0.00049311	          0.00000771	          0.00000032	          0.00000000	          0.00000029	        -18.75945783	        613.00362141	        -37.06812807	          0.52409291	          0.00000000	          0.08222815	          0.00000000	         -0.00000105	          0.00000000	          0.00000000	          1.22677072	          0.00000000	
          2.02500000	          0.00019722	          0.00055594	          0.00000132	          0.00000014	          0.00000000	          0.00000015	        -18.29593656	        623.57415363	        -37.69562904	          0.52621931	          0.00000000	          0.08168603	          0.00000000	         -0.00000046	          0.00000000	          0.00000000	          1.28969574	          0.00000000	
          2.03000000	          0.00018275	          0.00055226	         -0.00000288	          0.00000001	          0.00000000	          0.00000005	        -17.64940905	        634.65098947	        -38.35334640	          0.52826383	          0.00000000	          0.08114066	          0.00000000	         -0.00000005	          0.00000000	          0.00000000	          1.33395903	          0.00000000	
          2.03500000	          0.00015902	          0.00050622	         -0.00000534	         -0.00000008	          0.00000000	         -0.00000002	        -16.77690199	        646.17967054	        -39.03241206	          0.53022554	          0.00000000	          0.08059600	          0.00000000	          0.00000022	          0.00000000	          0.00000000	          1.35750905	          0.00000000	
